<mxfile host="app.diagrams.net" modified="2023-05-29T13:03:43.971Z" agent="Mozilla/5.0 (Windows NT 10.0; Win64; x64) AppleWebKit/537.36 (KHTML, like Gecko) Chrome/113.0.0.0 Safari/537.36" etag="ZrxT8V0W0zT05TFYFESQ" version="21.3.5" type="github">
  <diagram name="第 1 页" id="TVqRA0KLDl5AU748svhP">
    <mxGraphModel dx="1434" dy="756" grid="1" gridSize="10" guides="1" tooltips="1" connect="1" arrows="1" fold="1" page="1" pageScale="1" pageWidth="827" pageHeight="1169" math="0" shadow="0">
      <root>
        <mxCell id="0" />
        <mxCell id="1" parent="0" />
        <mxCell id="wq0h1Avm33E99zt0ADya-1" value=":store" style="shape=umlLifeline;perimeter=lifelinePerimeter;whiteSpace=wrap;html=1;container=0;dropTarget=0;collapsible=0;recursiveResize=0;outlineConnect=0;portConstraint=eastwest;newEdgeStyle={&quot;edgeStyle&quot;:&quot;elbowEdgeStyle&quot;,&quot;elbow&quot;:&quot;vertical&quot;,&quot;curved&quot;:0,&quot;rounded&quot;:0};" parent="1" vertex="1">
          <mxGeometry x="295" y="230" width="100" height="530" as="geometry" />
        </mxCell>
        <mxCell id="wq0h1Avm33E99zt0ADya-2" value="createStoreDescription()" style="html=1;verticalAlign=bottom;startArrow=oval;endArrow=block;startSize=8;edgeStyle=elbowEdgeStyle;elbow=vertical;curved=0;rounded=0;startFill=1;" parent="wq0h1Avm33E99zt0ADya-1" target="wq0h1Avm33E99zt0ADya-1" edge="1">
          <mxGeometry x="-0.0831" relative="1" as="geometry">
            <mxPoint x="-125" y="80" as="sourcePoint" />
            <mxPoint x="45" y="70" as="targetPoint" />
            <Array as="points">
              <mxPoint x="-65" y="80" />
              <mxPoint x="-10" y="70" />
              <mxPoint x="-30" y="70" />
            </Array>
            <mxPoint as="offset" />
          </mxGeometry>
        </mxCell>
        <mxCell id="wq0h1Avm33E99zt0ADya-3" value=":goods" style="shape=umlLifeline;perimeter=lifelinePerimeter;whiteSpace=wrap;html=1;container=0;dropTarget=0;collapsible=0;recursiveResize=0;outlineConnect=0;portConstraint=eastwest;newEdgeStyle={&quot;edgeStyle&quot;:&quot;elbowEdgeStyle&quot;,&quot;elbow&quot;:&quot;vertical&quot;,&quot;curved&quot;:0,&quot;rounded&quot;:0};" parent="1" vertex="1">
          <mxGeometry x="545" y="230" width="100" height="425" as="geometry" />
        </mxCell>
        <mxCell id="wq0h1Avm33E99zt0ADya-5" value=":commentarea" style="shape=umlLifeline;perimeter=lifelinePerimeter;whiteSpace=wrap;html=1;container=0;dropTarget=0;collapsible=0;recursiveResize=0;outlineConnect=0;portConstraint=eastwest;newEdgeStyle={&quot;edgeStyle&quot;:&quot;elbowEdgeStyle&quot;,&quot;elbow&quot;:&quot;vertical&quot;,&quot;curved&quot;:0,&quot;rounded&quot;:0};" parent="1" vertex="1">
          <mxGeometry x="685" y="230" width="100" height="425" as="geometry" />
        </mxCell>
        <mxCell id="wq0h1Avm33E99zt0ADya-6" value="" style="endArrow=none;dashed=1;html=1;rounded=0;" parent="1" edge="1">
          <mxGeometry width="50" height="50" relative="1" as="geometry">
            <mxPoint x="165" y="760" as="sourcePoint" />
            <mxPoint x="165" y="250" as="targetPoint" />
          </mxGeometry>
        </mxCell>
        <mxCell id="wq0h1Avm33E99zt0ADya-7" value="opt[下架書本]" style="shape=umlFrame;whiteSpace=wrap;html=1;pointerEvents=0;width=167;height=28;" parent="1" vertex="1">
          <mxGeometry x="310" y="522.5" width="460" height="137.5" as="geometry" />
        </mxCell>
        <mxCell id="wq0h1Avm33E99zt0ADya-8" value="賣場" style="shape=umlFrame;whiteSpace=wrap;html=1;pointerEvents=0;" parent="1" vertex="1">
          <mxGeometry x="10" y="130" width="810" height="650" as="geometry" />
        </mxCell>
        <mxCell id="wq0h1Avm33E99zt0ADya-9" value="opt[上架書本]" style="shape=umlFrame;whiteSpace=wrap;html=1;pointerEvents=0;width=147;height=30;" parent="1" vertex="1">
          <mxGeometry x="310" y="335" width="460" height="140" as="geometry" />
        </mxCell>
        <mxCell id="wq0h1Avm33E99zt0ADya-10" value="createStoreDescription()" style="html=1;verticalAlign=bottom;endArrow=block;edgeStyle=elbowEdgeStyle;elbow=vertical;curved=0;rounded=0;" parent="1" source="wq0h1Avm33E99zt0ADya-1" target="wq0h1Avm33E99zt0ADya-3" edge="1">
          <mxGeometry y="10" relative="1" as="geometry">
            <mxPoint x="357.5" y="325" as="sourcePoint" />
            <Array as="points">
              <mxPoint x="460" y="320" />
              <mxPoint x="407" y="315" />
              <mxPoint x="512.5" y="325" />
            </Array>
            <mxPoint x="597.5" y="325" as="targetPoint" />
            <mxPoint as="offset" />
          </mxGeometry>
        </mxCell>
        <mxCell id="wq0h1Avm33E99zt0ADya-13" value="viewComment()" style="html=1;verticalAlign=bottom;endArrow=block;edgeStyle=elbowEdgeStyle;elbow=vertical;curved=0;rounded=0;" parent="1" source="wq0h1Avm33E99zt0ADya-3" target="wq0h1Avm33E99zt0ADya-5" edge="1">
          <mxGeometry y="10" relative="1" as="geometry">
            <mxPoint x="482" y="375" as="sourcePoint" />
            <Array as="points">
              <mxPoint x="647" y="375" />
              <mxPoint x="637" y="375" />
              <mxPoint x="637" y="385" />
              <mxPoint x="657" y="365" />
              <mxPoint x="577" y="380" />
              <mxPoint x="649.5" y="385" />
            </Array>
            <mxPoint x="732" y="375" as="targetPoint" />
            <mxPoint as="offset" />
          </mxGeometry>
        </mxCell>
        <mxCell id="wq0h1Avm33E99zt0ADya-16" value="user" style="shape=umlActor;verticalLabelPosition=bottom;verticalAlign=top;html=1;outlineConnect=0;" parent="1" vertex="1">
          <mxGeometry x="70" y="190" width="30" height="60" as="geometry" />
        </mxCell>
        <mxCell id="wq0h1Avm33E99zt0ADya-17" value="" style="endArrow=none;dashed=1;html=1;rounded=0;" parent="1" edge="1">
          <mxGeometry width="50" height="50" relative="1" as="geometry">
            <mxPoint x="84.5" y="750" as="sourcePoint" />
            <mxPoint x="84.5" y="240" as="targetPoint" />
          </mxGeometry>
        </mxCell>
        <mxCell id="wq0h1Avm33E99zt0ADya-18" value="login()" style="html=1;verticalAlign=bottom;startArrow=oval;endArrow=block;startSize=8;edgeStyle=elbowEdgeStyle;elbow=vertical;curved=0;rounded=0;startFill=1;" parent="1" edge="1">
          <mxGeometry x="-0.0831" relative="1" as="geometry">
            <mxPoint x="90" y="290" as="sourcePoint" />
            <mxPoint x="160" y="290" as="targetPoint" />
            <Array as="points">
              <mxPoint x="150" y="290" />
              <mxPoint x="165" y="345" />
            </Array>
            <mxPoint as="offset" />
          </mxGeometry>
        </mxCell>
        <mxCell id="wq0h1Avm33E99zt0ADya-20" value="saller" style="shape=umlActor;verticalLabelPosition=bottom;verticalAlign=top;html=1;" parent="1" vertex="1">
          <mxGeometry x="150" y="200" width="30" height="60" as="geometry" />
        </mxCell>
        <mxCell id="wq0h1Avm33E99zt0ADya-25" value="listgoods()" style="html=1;verticalAlign=bottom;endArrow=block;edgeStyle=elbowEdgeStyle;elbow=vertical;curved=0;rounded=0;startArrow=none;startFill=0;" parent="1" edge="1">
          <mxGeometry x="-0.04" y="10" relative="1" as="geometry">
            <mxPoint x="350" y="404.5" as="sourcePoint" />
            <Array as="points">
              <mxPoint x="515" y="404.5" />
            </Array>
            <mxPoint x="600" y="404.5" as="targetPoint" />
            <mxPoint as="offset" />
          </mxGeometry>
        </mxCell>
        <mxCell id="wq0h1Avm33E99zt0ADya-26" value="removegoods()" style="html=1;verticalAlign=bottom;endArrow=block;edgeStyle=elbowEdgeStyle;elbow=vertical;curved=0;rounded=0;startArrow=none;startFill=0;" parent="1" edge="1">
          <mxGeometry x="-0.04" y="10" relative="1" as="geometry">
            <mxPoint x="350" y="590.75" as="sourcePoint" />
            <Array as="points">
              <mxPoint x="515" y="590.75" />
            </Array>
            <mxPoint x="600" y="590.75" as="targetPoint" />
            <mxPoint as="offset" />
          </mxGeometry>
        </mxCell>
        <mxCell id="bq9s1PBU9UvBFBou90dn-5" value="新增成功" style="html=1;verticalAlign=bottom;endArrow=open;dashed=1;endSize=8;edgeStyle=elbowEdgeStyle;elbow=vertical;curved=0;rounded=0;" parent="1" source="wq0h1Avm33E99zt0ADya-3" edge="1">
          <mxGeometry relative="1" as="geometry">
            <mxPoint x="460" y="442" as="sourcePoint" />
            <mxPoint x="170" y="440" as="targetPoint" />
          </mxGeometry>
        </mxCell>
        <mxCell id="bq9s1PBU9UvBFBou90dn-6" value="刪除成功" style="html=1;verticalAlign=bottom;endArrow=open;dashed=1;endSize=8;edgeStyle=elbowEdgeStyle;elbow=vertical;curved=0;rounded=0;" parent="1" edge="1">
          <mxGeometry relative="1" as="geometry">
            <mxPoint x="595" y="630" as="sourcePoint" />
            <mxPoint x="170" y="630" as="targetPoint" />
          </mxGeometry>
        </mxCell>
      </root>
    </mxGraphModel>
  </diagram>
</mxfile>
